<svg xmlns="http://www.w3.org/2000/svg" viewBox="0 0 64 64" role="img" aria-labelledby="title desc">
  <title id="title">Duglas Brenes favicon</title>
  <desc id="desc">Monograma geométrico DB en verde esmeralda y azul marino.</desc>
  <rect width="64" height="64" rx="14" fill="#061526"/>
  <path fill="#2D9886" d="M14 12h17c12.2 0 21 8.2 21 20s-8.8 20-21 20H14V12Zm10 10v20h7c6.5 0 10.8-4 10.8-10S37.5 22 31 22h-7Z"/>
  <path fill="#FFFFFF" d="M28 17h12c6.4 0 10.5 3.4 10.5 8.8 0 3.1-1.4 5.5-3.8 6.9 3.1 1.4 5 4.1 5 7.5 0 5.9-4.5 9.8-11.4 9.8H28V17Zm9 8v5h3c2 0 3.2-1 3.2-2.6S42 25 40 25h-3Zm0 12v5h3.8c2.2 0 3.5-1 3.5-2.6 0-1.5-1.3-2.4-3.5-2.4H37Z"/>
</svg>
